<!DOCTYPE svg PUBLIC "-//W3C//DTD SVG 20010904//EN" "http://www.w3.org/TR/2001/REC-SVG-20010904/DTD/svg10.dtd">
<svg version="1.0" xmlns="http://www.w3.org/2000/svg" width="429px" height="153px" viewBox="0 0 4290 1530" preserveAspectRatio="xMidYMid meet">
<g id="layer101" fill="#7b292c" stroke="none">
 <path d="M3298 1410 c-28 -17 -21 -56 17 -98 29 -33 33 -44 29 -73 -11 -69 81 -152 171 -153 33 -1 41 3 43 19 1 11 -7 31 -19 44 l-22 24 -18 -22 c-15 -18 -22 -20 -37 -12 -27 14 -72 69 -72 87 0 16 26 19 35 5 8 -15 66 -10 72 6 8 21 -15 41 -57 48 -37 6 -90 51 -90 76 0 19 55 8 108 -22 40 -23 57 -28 66 -19 8 8 5 16 -14 30 -68 53 -175 83 -212 60z"/>
 <path d="M2800 1326 c-19 -19 -10 -52 23 -92 28 -32 33 -45 29 -75 -3 -32 2 -43 34 -79 45 -49 78 -68 133 -75 50 -6 60 9 36 54 -18 35 -44 41 -52 11 -8 -29 -27 -25 -62 15 -35 40 -43 82 -13 70 39 -17 72 -17 78 -1 9 24 -14 45 -58 52 -36 6 -88 50 -88 75 0 16 40 9 105 -18 46 -20 67 -35 74 -53 21 -58 71 -110 135 -140 72 -34 94 -36 142 -14 48 23 45 51 -12 102 -50 44 -98 62 -117 43 -16 -16 2 -42 43 -63 40 -20 52 -38 39 -54 -7 -9 -19 -7 -49 7 -22 11 -51 24 -65 29 -26 10 -65 83 -65 122 0 28 54 58 73 39 6 -6 18 -11 28 -11 9 0 33 -11 53 -25 43 -29 59 -32 54 -8 -4 21 -71 68 -119 82 -73 22 -149 4 -149 -35 0 -18 4 -19 -65 17 -62 32 -145 45 -165 25z"/>
 <path d="M674 1297 c-8 -5 -22 -6 -31 -3 -8 3 -20 3 -26 -1 -7 -4 -26 -8 -44 -9 -68 -2 -283 -132 -283 -170 0 -7 -9 -18 -20 -24 -11 -6 -20 -19 -20 -29 0 -10 -7 -24 -15 -31 -9 -7 -14 -19 -11 -25 2 -7 0 -17 -6 -23 -9 -9 -14 -135 -8 -167 4 -19 7 -30 9 -35 1 -3 4 -17 6 -31 6 -43 40 -101 92 -154 78 -80 121 -115 141 -115 10 0 22 -4 28 -9 21 -20 107 -62 134 -66 16 -2 38 -6 48 -9 16 -5 19 -1 20 24 1 32 -7 39 -51 44 -14 1 -32 7 -39 13 -7 6 -25 13 -39 17 -25 5 -139 109 -139 126 0 4 -13 27 -30 51 -16 24 -30 54 -30 66 0 12 -4 24 -8 27 -4 2 -6 46 -5 97 3 83 6 97 31 132 15 21 34 49 42 63 9 15 48 40 100 63 123 57 128 58 210 65 19 1 43 6 53 10 10 5 40 6 68 4 27 -3 52 -1 55 3 6 10 87 12 97 3 5 -6 114 -12 215 -14 19 0 39 -3 45 -7 7 -4 26 -9 42 -10 46 -4 79 -10 95 -16 35 -14 148 -40 182 -42 20 -2 51 -10 69 -19 18 -9 39 -16 48 -16 9 0 30 -7 46 -16 17 -9 71 -32 120 -51 50 -20 108 -47 129 -61 66 -41 106 -55 122 -41 26 21 15 46 -33 78 -25 17 -53 31 -61 31 -9 0 -23 6 -31 14 -23 21 -142 79 -148 72 -3 -3 -26 6 -52 19 -25 14 -53 25 -61 25 -9 0 -20 4 -25 9 -15 13 -106 41 -116 36 -4 -3 -11 0 -14 6 -4 5 -14 8 -22 5 -8 -3 -30 1 -50 9 -19 8 -39 13 -43 10 -5 -3 -11 -1 -15 5 -3 5 -16 10 -28 9 -12 0 -56 9 -97 21 -41 11 -87 18 -102 15 -14 -4 -29 -1 -33 4 -3 6 -17 8 -31 5 -13 -3 -32 -2 -41 2 -22 10 -52 12 -260 16 -90 2 -170 0 -179 -5z"/>
 <path d="M3707 1284 c-11 -11 -8 -64 4 -64 33 0 149 -57 184 -91 23 -22 46 -39 52 -39 11 0 19 -16 71 -131 24 -53 29 -77 28 -134 -2 -78 -34 -161 -83 -209 -32 -32 -177 -106 -209 -106 -12 0 -26 -4 -29 -10 -3 -5 -19 -7 -34 -4 -16 3 -32 1 -35 -5 -5 -7 -28 -8 -65 -5 -39 5 -61 3 -65 -5 -10 -15 -192 -15 -202 0 -5 8 -29 10 -75 6 -43 -4 -71 -2 -75 5 -4 6 -22 8 -45 4 -21 -3 -40 -2 -44 4 -3 5 -16 10 -28 10 -39 0 -71 7 -143 29 -39 12 -82 23 -95 25 -14 1 -30 6 -37 10 -7 4 -16 5 -21 1 -5 -3 -13 0 -16 6 -4 5 -13 8 -20 5 -7 -2 -24 2 -38 9 -40 21 -230 95 -243 95 -6 0 -17 7 -24 15 -7 8 -37 28 -68 45 -52 28 -57 29 -74 13 -41 -37 -18 -58 169 -152 57 -29 115 -54 130 -56 16 -2 47 -13 71 -25 56 -27 163 -60 174 -54 5 3 15 0 23 -6 8 -6 19 -9 24 -6 5 4 12 2 15 -2 3 -5 21 -9 40 -10 20 -1 48 -8 64 -16 35 -18 133 -36 160 -30 11 3 23 1 26 -5 4 -6 20 -8 36 -4 17 3 36 1 42 -4 7 -5 29 -8 48 -7 19 1 40 -2 45 -6 15 -11 394 -9 401 2 3 5 14 6 25 3 10 -4 24 -3 31 1 7 4 23 9 35 10 13 2 57 19 98 38 118 56 260 215 239 269 -3 8 -2 17 3 20 10 6 9 109 -1 126 -4 7 -5 22 -2 35 6 24 -46 146 -62 146 -6 0 -17 16 -27 36 -9 19 -26 39 -38 43 -12 5 -38 24 -57 43 -38 37 -61 51 -160 97 -74 34 -112 45 -123 35z"/>
 <path d="M2670 1253 c-8 -2 -22 -7 -30 -10 -8 -3 -28 -7 -43 -9 -16 -2 -38 -11 -50 -19 -12 -8 -31 -15 -42 -15 -23 0 -135 -67 -135 -81 0 -5 -5 -9 -11 -9 -14 0 -129 -114 -129 -128 0 -5 -6 -12 -13 -15 -7 -3 -43 -49 -80 -104 -37 -54 -76 -109 -87 -123 -11 -14 -20 -30 -20 -35 0 -14 -90 -101 -112 -108 -19 -7 -25 -42 -9 -51 5 -3 12 -22 15 -41 8 -40 26 -45 66 -17 35 24 130 116 130 126 0 4 11 17 25 28 14 11 25 25 25 31 0 7 9 18 20 25 11 7 20 19 20 27 0 8 6 18 14 22 7 4 32 31 55 58 102 121 154 166 252 215 53 26 113 53 135 60 21 7 43 16 48 20 5 5 14 6 21 4 7 -3 16 -1 19 5 4 6 13 8 20 5 24 -9 26 23 5 84 -19 57 -21 59 -57 59 -20 1 -44 -1 -52 -4z"/>
 <path d="M3564 1171 c-11 -11 -1 -21 31 -32 41 -15 50 -33 30 -62 -23 -32 -20 -67 6 -67 22 0 119 65 119 80 0 5 9 12 20 15 29 9 25 22 -19 50 -33 23 -47 25 -110 23 -40 -2 -75 -5 -77 -7z"/>
 <path d="M1030 1140 c-109 -15 -132 -21 -176 -41 -53 -25 -125 -93 -150 -140 -12 -24 -17 -57 -18 -115 0 -70 4 -87 28 -128 15 -25 31 -46 36 -46 6 0 10 -7 10 -15 0 -20 39 -19 47 1 3 9 1 26 -6 36 -7 11 -14 38 -16 59 -2 21 -10 47 -16 57 -10 16 -9 27 4 55 9 19 17 40 17 45 0 42 126 123 214 137 22 4 46 11 51 15 14 10 345 10 370 0 11 -5 77 -20 146 -34 69 -14 150 -34 180 -45 145 -50 193 -70 238 -99 52 -34 66 -38 76 -22 24 38 -144 132 -340 191 -124 37 -220 59 -234 54 -7 -3 -20 0 -27 6 -8 6 -21 8 -30 5 -9 -4 -23 -1 -30 5 -8 6 -25 8 -39 5 -14 -4 -33 -2 -43 2 -24 13 -226 21 -292 12z"/>
 <path d="M3618 963 c-21 -5 -21 -3 -4 -44 7 -19 17 -43 21 -54 13 -34 7 -125 -10 -151 -46 -70 -188 -105 -431 -105 -93 -1 -189 4 -214 9 -45 10 -181 34 -210 37 -9 0 -21 4 -28 9 -6 4 -16 5 -21 1 -5 -3 -12 -1 -16 5 -3 5 -13 10 -22 10 -8 0 -66 20 -127 45 -62 25 -117 45 -122 45 -5 0 -27 14 -48 30 -37 28 -41 29 -58 13 -15 -13 -16 -19 -5 -31 19 -24 224 -121 302 -143 38 -11 78 -25 88 -30 23 -12 159 -41 165 -34 3 3 11 0 17 -5 7 -6 41 -13 76 -16 35 -3 87 -8 114 -11 93 -10 357 -6 385 6 3 1 21 4 40 6 54 6 123 39 168 82 70 67 79 161 24 272 -27 56 -43 66 -84 54z"/>
 <path d="M1706 764 c-24 -23 -20 -40 24 -121 22 -40 37 -73 32 -73 -5 0 -33 17 -63 38 -69 48 -127 82 -140 82 -6 0 -22 9 -36 20 -35 27 -67 26 -83 -5 -12 -22 -10 -31 15 -82 15 -32 41 -75 57 -96 25 -32 28 -40 17 -53 -15 -18 2 -35 80 -79 77 -44 75 -9 -5 92 -86 107 -104 184 -37 154 45 -20 151 -90 241 -158 45 -35 86 -63 91 -63 5 0 11 -7 15 -15 6 -18 32 -20 42 -3 4 6 -3 20 -17 32 -33 30 -119 159 -151 229 -16 35 -16 38 -1 44 9 4 29 -1 45 -10 38 -22 60 -22 56 1 -3 18 -119 82 -149 82 -10 0 -25 -7 -33 -16z"/>
 <path d="M958 653 c-27 -7 -22 -31 14 -66 29 -28 78 -92 78 -101 0 -5 -40 -18 -59 -20 -27 -2 -22 -25 9 -41 22 -11 44 -14 69 -10 35 6 39 3 96 -60 42 -47 65 -65 79 -63 34 5 30 40 -9 85 l-35 41 37 -10 c42 -11 121 -42 170 -65 18 -8 40 -13 48 -9 32 12 27 35 -15 76 -46 44 -76 53 -67 19 4 -13 1 -19 -6 -16 -7 2 -44 14 -83 27 l-70 22 25 27 c32 34 75 90 80 105 10 27 81 38 81 12 0 -8 9 -24 19 -37 18 -22 21 -23 35 -9 15 14 14 19 -9 50 -30 41 -50 50 -98 45 -29 -2 -47 -15 -98 -70 -34 -36 -75 -73 -91 -81 -25 -13 -31 -13 -52 1 -25 16 -47 45 -77 99 -19 35 -47 54 -71 49z"/>
 <path d="M683 605 c-9 -24 5 -74 33 -119 14 -22 41 -67 59 -98 32 -56 33 -58 12 -59 -128 -4 -161 -14 -172 -50 -5 -15 -1 -28 12 -41 19 -19 20 -19 79 4 41 16 81 23 132 23 51 0 72 4 72 13 0 8 16 12 44 12 25 0 48 5 51 11 12 19 -29 38 -80 39 -48 0 -51 2 -82 48 -29 45 -83 145 -83 157 0 12 32 3 85 -25 67 -35 65 -35 65 -14 0 22 -21 38 -105 80 -75 37 -112 43 -122 19z"/>
 </g>
<g id="layer102" fill="#833a39" stroke="none">
 <path d="M3298 1410 c-28 -17 -21 -56 17 -98 29 -33 33 -44 29 -73 -11 -69 81 -152 171 -153 33 -1 41 3 43 19 1 11 -7 31 -19 44 l-22 24 -18 -22 c-15 -18 -22 -20 -37 -12 -27 14 -72 69 -72 87 0 16 26 19 35 5 8 -15 66 -10 72 6 8 21 -15 41 -57 48 -37 6 -90 51 -90 76 0 19 55 8 108 -22 40 -23 57 -28 66 -19 8 8 5 16 -14 30 -68 53 -175 83 -212 60z"/>
 <path d="M2800 1326 c-19 -19 -10 -52 23 -92 28 -32 33 -45 29 -75 -3 -32 2 -43 34 -79 45 -49 78 -68 133 -75 50 -6 60 9 36 54 -18 35 -44 41 -52 11 -8 -29 -27 -25 -62 15 -35 40 -43 82 -13 70 39 -17 72 -17 78 -1 9 24 -14 45 -58 52 -36 6 -88 50 -88 75 0 16 40 9 105 -18 46 -20 67 -35 74 -53 21 -58 71 -110 135 -140 72 -34 94 -36 142 -14 48 23 45 51 -12 102 -50 44 -98 62 -117 43 -16 -16 2 -42 43 -63 40 -20 52 -38 39 -54 -7 -9 -19 -7 -49 7 -22 11 -51 24 -65 29 -26 10 -65 83 -65 122 0 28 54 58 73 39 6 -6 18 -11 28 -11 9 0 33 -11 53 -25 43 -29 59 -32 54 -8 -4 21 -71 68 -119 82 -73 22 -149 4 -149 -35 0 -18 4 -19 -65 17 -62 32 -145 45 -165 25z"/>
 <path d="M3564 1171 c-11 -11 -1 -21 31 -32 41 -15 50 -33 30 -62 -23 -32 -20 -67 6 -67 22 0 119 65 119 80 0 5 9 12 20 15 29 9 25 22 -19 50 -33 23 -47 25 -110 23 -40 -2 -75 -5 -77 -7z"/>
 <path d="M1030 1140 c-109 -15 -132 -21 -176 -41 -53 -25 -125 -93 -150 -140 -12 -24 -17 -57 -18 -115 0 -70 4 -87 28 -128 15 -25 31 -46 36 -46 6 0 10 -7 10 -15 0 -20 39 -19 47 1 3 9 1 26 -6 36 -7 11 -14 38 -16 59 -2 21 -10 47 -16 57 -10 16 -9 27 4 55 9 19 17 40 17 45 0 42 126 123 214 137 22 4 46 11 51 15 14 10 345 10 370 0 11 -5 77 -20 146 -34 69 -14 150 -34 180 -45 145 -50 193 -70 238 -99 52 -34 66 -38 76 -22 24 38 -144 132 -340 191 -124 37 -220 59 -234 54 -7 -3 -20 0 -27 6 -8 6 -21 8 -30 5 -9 -4 -23 -1 -30 5 -8 6 -25 8 -39 5 -14 -4 -33 -2 -43 2 -24 13 -226 21 -292 12z"/>
 <path d="M3618 963 c-21 -5 -21 -3 -4 -44 7 -19 17 -43 21 -54 13 -34 7 -125 -10 -151 -46 -70 -188 -105 -431 -105 -93 -1 -189 4 -214 9 -45 10 -181 34 -210 37 -9 0 -21 4 -28 9 -6 4 -16 5 -21 1 -5 -3 -12 -1 -16 5 -3 5 -13 10 -22 10 -8 0 -66 20 -127 45 -62 25 -117 45 -122 45 -5 0 -27 14 -48 30 -37 28 -41 29 -58 13 -15 -13 -16 -19 -5 -31 19 -24 224 -121 302 -143 38 -11 78 -25 88 -30 23 -12 159 -41 165 -34 3 3 11 0 17 -5 7 -6 41 -13 76 -16 35 -3 87 -8 114 -11 93 -10 357 -6 385 6 3 1 21 4 40 6 54 6 123 39 168 82 70 67 79 161 24 272 -27 56 -43 66 -84 54z"/>
 <path d="M1706 764 c-24 -23 -20 -40 24 -121 22 -40 37 -73 32 -73 -5 0 -33 17 -63 38 -69 48 -127 82 -140 82 -6 0 -22 9 -36 20 -35 27 -67 26 -83 -5 -12 -22 -10 -31 15 -82 15 -32 41 -75 57 -96 25 -32 28 -40 17 -53 -15 -18 2 -35 80 -79 77 -44 75 -9 -5 92 -86 107 -104 184 -37 154 45 -20 151 -90 241 -158 45 -35 86 -63 91 -63 5 0 11 -7 15 -15 6 -18 32 -20 42 -3 4 6 -3 20 -17 32 -33 30 -119 159 -151 229 -16 35 -16 38 -1 44 9 4 29 -1 45 -10 38 -22 60 -22 56 1 -3 18 -119 82 -149 82 -10 0 -25 -7 -33 -16z"/>
 <path d="M2277 762 c-26 -29 -21 -45 26 -74 72 -45 245 -129 274 -133 16 -2 47 -13 71 -25 48 -23 164 -61 170 -55 13 13 -39 35 -93 40 -5 0 -36 13 -68 28 -32 15 -62 25 -68 22 -5 -4 -16 -1 -24 5 -21 17 -154 80 -170 80 -7 0 -34 16 -59 35 -26 19 -51 35 -57 35 -8 0 -7 5 1 15 14 17 46 20 54 6 9 -15 117 -73 124 -67 3 3 13 -1 22 -9 9 -8 41 -24 71 -34 30 -11 85 -32 123 -46 38 -14 89 -28 113 -30 24 -3 53 -10 64 -16 12 -6 23 -8 26 -5 4 3 11 2 17 -3 18 -15 136 -42 156 -36 10 3 21 1 25 -5 3 -5 14 -10 23 -10 24 0 -19 29 -44 30 -38 1 -70 8 -140 29 -39 12 -82 23 -95 25 -14 1 -30 6 -37 10 -7 4 -16 5 -21 1 -5 -3 -13 0 -16 6 -4 5 -13 8 -20 5 -7 -2 -24 2 -38 9 -40 21 -230 95 -243 95 -6 0 -17 7 -25 16 -10 12 -63 44 -120 72 -3 1 -13 -6 -22 -16z"/>
 <path d="M958 653 c-27 -7 -22 -31 14 -66 29 -28 78 -92 78 -101 0 -5 -40 -18 -59 -20 -27 -2 -22 -25 9 -41 22 -11 44 -14 69 -10 35 6 39 3 96 -60 42 -47 65 -65 79 -63 34 5 30 40 -9 85 l-35 41 37 -10 c42 -11 121 -42 170 -65 18 -8 40 -13 48 -9 32 12 27 35 -15 76 -46 44 -76 53 -67 19 4 -13 1 -19 -6 -16 -7 2 -44 14 -83 27 l-70 22 25 27 c32 34 75 90 80 105 10 27 81 38 81 12 0 -8 9 -24 19 -37 18 -22 21 -23 35 -9 15 14 14 19 -9 50 -30 41 -50 50 -98 45 -29 -2 -47 -15 -98 -70 -34 -36 -75 -73 -91 -81 -25 -13 -31 -13 -52 1 -25 16 -47 45 -77 99 -19 35 -47 54 -71 49z"/>
 <path d="M683 605 c-9 -24 5 -74 33 -119 14 -22 41 -67 59 -98 32 -56 33 -58 12 -59 -128 -4 -161 -14 -172 -50 -5 -15 -1 -28 12 -41 19 -19 20 -19 79 4 41 16 81 23 132 23 51 0 72 4 72 13 0 8 16 12 44 12 25 0 48 5 51 11 12 19 -29 38 -80 39 -48 0 -51 2 -82 48 -29 45 -83 145 -83 157 0 12 32 3 85 -25 67 -35 65 -35 65 -14 0 22 -21 38 -105 80 -75 37 -112 43 -122 19z"/>
 </g>
<g id="layer103" fill="#c72d33" stroke="none">
 <path d="M3298 1410 c-28 -17 -21 -56 17 -98 29 -33 33 -44 29 -73 -11 -69 81 -152 171 -153 33 -1 41 3 43 19 1 11 -7 31 -19 44 l-22 24 -18 -22 c-15 -18 -22 -20 -37 -12 -27 14 -72 69 -72 87 0 16 26 19 35 5 8 -15 66 -10 72 6 8 21 -15 41 -57 48 -37 6 -90 51 -90 76 0 19 55 8 108 -22 40 -23 57 -28 66 -19 8 8 5 16 -14 30 -68 53 -175 83 -212 60z"/>
 <path d="M2800 1326 c-19 -19 -10 -52 23 -92 28 -32 33 -45 29 -75 -3 -32 2 -43 34 -79 45 -49 78 -68 133 -75 50 -6 60 9 36 54 -18 35 -44 41 -52 11 -8 -29 -27 -25 -62 15 -35 40 -43 82 -13 70 39 -17 72 -17 78 -1 9 24 -14 45 -58 52 -36 6 -88 50 -88 75 0 16 40 9 105 -18 46 -20 67 -35 74 -53 21 -58 71 -110 135 -140 72 -34 94 -36 142 -14 48 23 45 51 -12 102 -50 44 -98 62 -117 43 -16 -16 2 -42 43 -63 40 -20 52 -38 39 -54 -7 -9 -19 -7 -49 7 -22 11 -51 24 -65 29 -26 10 -65 83 -65 122 0 28 54 58 73 39 6 -6 18 -11 28 -11 9 0 33 -11 53 -25 43 -29 59 -32 54 -8 -4 21 -71 68 -119 82 -73 22 -149 4 -149 -35 0 -18 4 -19 -65 17 -62 32 -145 45 -165 25z"/>
 <path d="M3564 1171 c-11 -11 -1 -21 31 -32 41 -15 50 -33 30 -62 -23 -32 -20 -67 6 -67 22 0 119 65 119 80 0 5 9 12 20 15 29 9 25 22 -19 50 -33 23 -47 25 -110 23 -40 -2 -75 -5 -77 -7z"/>
 <path d="M1030 1140 c-109 -15 -132 -21 -176 -41 -53 -25 -125 -93 -150 -140 -12 -24 -17 -57 -18 -115 0 -70 4 -87 28 -128 15 -25 31 -46 36 -46 6 0 10 -7 10 -15 0 -20 39 -19 47 1 3 9 1 26 -6 36 -7 11 -14 38 -16 59 -2 21 -10 47 -16 57 -10 16 -9 27 4 55 9 19 17 40 17 45 0 42 126 123 214 137 22 4 46 11 51 15 14 10 345 10 370 0 11 -5 77 -20 146 -34 69 -14 150 -34 180 -45 145 -50 193 -70 238 -99 52 -34 66 -38 76 -22 24 38 -144 132 -340 191 -124 37 -220 59 -234 54 -7 -3 -20 0 -27 6 -8 6 -21 8 -30 5 -9 -4 -23 -1 -30 5 -8 6 -25 8 -39 5 -14 -4 -33 -2 -43 2 -24 13 -226 21 -292 12z"/>
 <path d="M3618 963 c-21 -5 -21 -3 -4 -44 7 -19 17 -43 21 -54 13 -34 7 -125 -10 -151 -46 -70 -188 -105 -431 -105 -93 -1 -189 4 -214 9 -45 10 -181 34 -210 37 -9 0 -21 4 -28 9 -6 4 -16 5 -21 1 -5 -3 -12 -1 -16 5 -3 5 -13 10 -22 10 -8 0 -66 20 -127 45 -62 25 -117 45 -122 45 -5 0 -27 14 -48 30 -37 28 -41 29 -58 13 -15 -13 -16 -19 -5 -31 19 -24 224 -121 302 -143 38 -11 78 -25 88 -30 23 -12 159 -41 165 -34 3 3 11 0 17 -5 7 -6 41 -13 76 -16 35 -3 87 -8 114 -11 93 -10 357 -6 385 6 3 1 21 4 40 6 54 6 123 39 168 82 70 67 79 161 24 272 -27 56 -43 66 -84 54z"/>
 <path d="M1706 764 c-24 -23 -20 -40 24 -121 22 -40 37 -73 32 -73 -5 0 -33 17 -63 38 -69 48 -127 82 -140 82 -6 0 -22 9 -36 20 -35 27 -67 26 -83 -5 -12 -22 -10 -31 15 -82 15 -32 41 -75 57 -96 25 -32 28 -40 17 -53 -15 -18 2 -35 80 -79 77 -44 75 -9 -5 92 -86 107 -104 184 -37 154 45 -20 151 -90 241 -158 45 -35 86 -63 91 -63 5 0 11 -7 15 -15 6 -18 32 -20 42 -3 4 6 -3 20 -17 32 -33 30 -119 159 -151 229 -16 35 -16 38 -1 44 9 4 29 -1 45 -10 38 -22 60 -22 56 1 -3 18 -119 82 -149 82 -10 0 -25 -7 -33 -16z"/>
 <path d="M958 653 c-27 -7 -22 -31 14 -66 29 -28 78 -92 78 -101 0 -5 -40 -18 -59 -20 -27 -2 -22 -25 9 -41 22 -11 44 -14 69 -10 35 6 39 3 96 -60 42 -47 65 -65 79 -63 34 5 30 40 -9 85 l-35 41 37 -10 c42 -11 121 -42 170 -65 18 -8 40 -13 48 -9 32 12 27 35 -15 76 -46 44 -76 53 -67 19 4 -13 1 -19 -6 -16 -7 2 -44 14 -83 27 l-70 22 25 27 c32 34 75 90 80 105 10 27 81 38 81 12 0 -8 9 -24 19 -37 18 -22 21 -23 35 -9 15 14 14 19 -9 50 -30 41 -50 50 -98 45 -29 -2 -47 -15 -98 -70 -34 -36 -75 -73 -91 -81 -25 -13 -31 -13 -52 1 -25 16 -47 45 -77 99 -19 35 -47 54 -71 49z"/>
 <path d="M683 605 c-9 -24 5 -74 33 -119 14 -22 41 -67 59 -98 32 -56 33 -58 12 -59 -128 -4 -161 -14 -172 -50 -5 -15 -1 -28 12 -41 19 -19 20 -19 79 4 41 16 81 23 132 23 51 0 72 4 72 13 0 8 16 12 44 12 25 0 48 5 51 11 12 19 -29 38 -80 39 -48 0 -51 2 -82 48 -29 45 -83 145 -83 157 0 12 32 3 85 -25 67 -35 65 -35 65 -14 0 22 -21 38 -105 80 -75 37 -112 43 -122 19z"/>
 </g>
<g id="layer104" fill="#e22d32" stroke="none">
 <path d="M3298 1410 c-28 -17 -21 -56 17 -98 29 -33 33 -44 29 -73 -11 -69 81 -152 171 -153 33 -1 41 3 43 19 1 11 -7 31 -19 44 l-22 24 -18 -22 c-15 -18 -22 -20 -37 -12 -27 14 -72 69 -72 87 0 16 26 19 35 5 8 -15 66 -10 72 6 8 21 -15 41 -57 48 -37 6 -90 51 -90 76 0 19 55 8 108 -22 40 -23 57 -28 66 -19 8 8 5 16 -14 30 -68 53 -175 83 -212 60z"/>
 <path d="M2800 1326 c-19 -19 -10 -52 23 -92 28 -32 33 -45 29 -75 -3 -32 2 -43 34 -79 45 -49 78 -68 133 -75 50 -6 60 9 36 54 -18 35 -44 41 -52 11 -8 -29 -27 -25 -62 15 -35 40 -43 82 -13 70 39 -17 72 -17 78 -1 9 24 -14 45 -58 52 -36 6 -88 50 -88 75 0 16 40 9 105 -18 46 -20 67 -35 74 -53 21 -58 71 -110 135 -140 72 -34 94 -36 142 -14 48 23 45 51 -12 102 -50 44 -98 62 -117 43 -16 -16 2 -42 43 -63 40 -20 52 -38 39 -54 -7 -9 -19 -7 -49 7 -22 11 -51 24 -65 29 -26 10 -65 83 -65 122 0 28 54 58 73 39 6 -6 18 -11 28 -11 9 0 33 -11 53 -25 43 -29 59 -32 54 -8 -4 21 -71 68 -119 82 -73 22 -149 4 -149 -35 0 -18 4 -19 -65 17 -62 32 -145 45 -165 25z"/>
 <path d="M3564 1171 c-11 -11 -1 -21 31 -32 41 -15 50 -33 30 -62 -23 -32 -20 -67 6 -67 22 0 119 65 119 80 0 5 9 12 20 15 29 9 25 22 -19 50 -33 23 -47 25 -110 23 -40 -2 -75 -5 -77 -7z"/>
 <path d="M1030 1140 c-109 -15 -132 -21 -176 -41 -53 -25 -125 -93 -150 -140 -12 -24 -17 -57 -18 -115 0 -70 4 -87 28 -128 15 -25 29 -46 31 -46 5 0 -11 44 -27 73 -7 12 -13 27 -14 32 0 6 -2 13 -3 18 -5 15 -4 95 1 103 3 5 8 22 12 38 8 32 111 146 133 146 8 0 24 5 36 12 25 13 26 13 120 24 37 4 70 11 73 15 7 12 88 11 100 0 5 -6 54 -12 109 -14 55 -3 108 -8 118 -12 9 -4 24 -5 32 -2 8 4 17 2 20 -3 3 -5 16 -10 28 -9 12 0 36 -3 52 -6 17 -4 37 -7 45 -9 19 -3 218 -65 245 -76 11 -5 31 -12 45 -16 14 -3 32 -12 40 -20 9 -7 41 -25 73 -39 31 -15 59 -31 63 -36 14 -23 -7 -19 -54 11 -52 32 -274 118 -321 124 -14 2 -33 6 -41 9 -20 8 -171 35 -193 34 -40 -1 5 -15 128 -40 72 -15 155 -35 185 -45 146 -51 194 -71 239 -100 52 -34 66 -38 76 -22 24 38 -144 132 -340 191 -124 37 -220 59 -234 54 -7 -3 -20 0 -27 6 -8 6 -21 8 -30 5 -9 -4 -23 -1 -30 5 -8 6 -25 8 -39 5 -14 -4 -33 -2 -43 2 -24 13 -226 21 -292 12z"/>
 <path d="M3630 961 c0 -6 8 -11 18 -11 25 0 72 -104 77 -170 3 -34 -41 -131 -65 -145 -36 -21 -113 -58 -125 -60 -5 -1 -12 -3 -15 -4 -3 -1 -27 -4 -55 -7 -27 -2 -57 -7 -65 -10 -8 -3 -66 -5 -127 -4 -77 1 -113 -2 -113 -10 0 -14 276 -6 310 9 3 1 21 4 40 6 54 6 123 39 168 82 70 67 79 161 24 272 -19 39 -34 57 -50 59 -12 2 -22 -1 -22 -7z"/>
 <path d="M2326 811 c-15 -16 -15 -19 1 -34 31 -27 225 -117 298 -138 39 -11 78 -25 88 -30 23 -12 159 -41 165 -34 3 3 11 0 17 -5 11 -9 69 -17 186 -25 26 -1 53 -6 60 -11 11 -6 10 -3 -1 10 -11 14 -24 17 -57 13 -24 -2 -46 0 -49 5 -3 5 -18 8 -32 7 -15 -2 -36 0 -47 4 -11 4 -38 9 -60 12 -22 4 -50 8 -62 11 -13 2 -33 6 -45 9 -100 18 -458 169 -458 192 0 19 6 17 68 -21 32 -19 86 -44 122 -56 35 -12 76 -28 92 -36 15 -8 40 -16 55 -18 15 -2 41 -9 58 -15 16 -7 45 -14 65 -16 19 -2 42 -6 50 -9 8 -3 33 -7 55 -10 22 -3 55 -8 73 -12 20 -4 32 -3 32 4 0 6 -21 14 -47 17 -27 4 -72 11 -100 16 -29 6 -63 11 -76 13 -12 1 -28 6 -35 10 -7 4 -16 5 -21 1 -5 -3 -12 -1 -16 5 -3 5 -13 10 -22 10 -8 0 -66 20 -127 45 -62 25 -117 45 -121 45 -4 0 -22 10 -39 23 -49 37 -52 38 -70 18z"/>
 <path d="M1706 764 c-24 -23 -20 -40 24 -121 22 -40 37 -73 32 -73 -5 0 -33 17 -63 38 -69 48 -127 82 -140 82 -6 0 -22 9 -36 20 -35 27 -67 26 -83 -5 -12 -22 -10 -31 15 -82 15 -32 41 -75 57 -96 25 -32 28 -40 17 -53 -15 -18 2 -35 80 -79 77 -44 75 -9 -5 92 -86 107 -104 184 -37 154 45 -20 151 -90 241 -158 45 -35 86 -63 91 -63 5 0 11 -7 15 -15 6 -18 32 -20 42 -3 4 6 -3 20 -17 32 -33 30 -119 159 -151 229 -16 35 -16 38 -1 44 9 4 29 -1 45 -10 38 -22 60 -22 56 1 -3 18 -119 82 -149 82 -10 0 -25 -7 -33 -16z"/>
 <path d="M958 653 c-27 -7 -22 -31 14 -66 29 -28 78 -92 78 -101 0 -5 -40 -18 -59 -20 -27 -2 -22 -25 9 -41 22 -11 44 -14 69 -10 35 6 39 3 96 -60 42 -47 65 -65 79 -63 34 5 30 40 -9 85 l-35 41 37 -10 c42 -11 121 -42 170 -65 18 -8 40 -13 48 -9 32 12 27 35 -15 76 -46 44 -76 53 -67 19 4 -13 1 -19 -6 -16 -7 2 -44 14 -83 27 l-70 22 25 27 c32 34 75 90 80 105 10 27 81 38 81 12 0 -8 9 -24 19 -37 18 -22 21 -23 35 -9 15 14 14 19 -9 50 -30 41 -50 50 -98 45 -29 -2 -47 -15 -98 -70 -34 -36 -75 -73 -91 -81 -25 -13 -31 -13 -52 1 -25 16 -47 45 -77 99 -19 35 -47 54 -71 49z"/>
 <path d="M683 605 c-9 -24 5 -74 33 -119 14 -22 41 -67 59 -98 32 -56 33 -58 12 -59 -128 -4 -161 -14 -172 -50 -5 -15 -1 -28 12 -41 19 -19 20 -19 79 4 41 16 81 23 132 23 51 0 72 4 72 13 0 8 16 12 44 12 25 0 48 5 51 11 12 19 -29 38 -80 39 -48 0 -51 2 -82 48 -29 45 -83 145 -83 157 0 12 32 3 85 -25 67 -35 65 -35 65 -14 0 22 -21 38 -105 80 -75 37 -112 43 -122 19z"/>
 </g>
<g id="layer105" fill="#ca514c" stroke="none">
 <path d="M3298 1410 c-28 -17 -21 -56 17 -98 29 -33 33 -44 29 -73 -11 -69 81 -152 171 -153 33 -1 41 3 43 19 1 11 -7 31 -19 44 l-22 24 -18 -22 c-15 -18 -22 -20 -37 -12 -27 14 -72 69 -72 87 0 16 26 19 35 5 8 -15 66 -10 72 6 8 21 -15 41 -57 48 -37 6 -90 51 -90 76 0 19 55 8 108 -22 40 -23 57 -28 66 -19 8 8 5 16 -14 30 -68 53 -175 83 -212 60z"/>
 <path d="M2800 1326 c-19 -19 -10 -52 23 -92 28 -32 33 -45 29 -75 -3 -32 2 -43 34 -79 45 -49 78 -68 133 -75 50 -6 60 9 36 54 -18 35 -44 41 -52 11 -8 -29 -27 -25 -62 15 -35 40 -43 82 -13 70 39 -17 72 -17 78 -1 9 24 -14 45 -58 52 -36 6 -88 50 -88 75 0 16 40 9 105 -18 46 -20 67 -35 74 -53 21 -58 71 -110 135 -140 72 -34 94 -36 142 -14 48 23 45 51 -12 102 -50 44 -98 62 -117 43 -16 -16 2 -42 43 -63 40 -20 52 -38 39 -54 -7 -9 -19 -7 -49 7 -22 11 -51 24 -65 29 -26 10 -65 83 -65 122 0 28 54 58 73 39 6 -6 18 -11 28 -11 9 0 33 -11 53 -25 43 -29 59 -32 54 -8 -4 21 -71 68 -119 82 -73 22 -149 4 -149 -35 0 -18 4 -19 -65 17 -62 32 -145 45 -165 25z"/>
 <path d="M1030 1140 c-109 -15 -132 -21 -176 -41 -53 -25 -125 -93 -150 -140 -12 -24 -17 -57 -18 -115 0 -70 4 -87 28 -128 15 -25 29 -46 31 -46 5 0 -11 44 -27 73 -7 12 -13 27 -14 32 0 6 -2 13 -3 18 -5 15 -4 95 1 103 3 5 8 22 12 38 8 32 111 146 133 146 8 0 24 5 36 12 25 13 26 13 120 24 37 4 70 11 73 15 7 12 88 11 100 0 5 -6 54 -12 109 -14 55 -3 108 -8 118 -12 9 -4 24 -5 32 -2 8 4 17 2 20 -3 3 -5 16 -10 28 -9 12 0 36 -3 52 -6 17 -4 37 -7 45 -9 19 -3 218 -65 245 -76 11 -5 31 -12 45 -16 14 -3 32 -12 40 -20 9 -7 41 -25 73 -39 31 -15 59 -31 63 -36 14 -23 -7 -19 -54 11 -52 32 -274 118 -321 124 -14 2 -33 6 -41 9 -20 8 -171 35 -193 34 -40 -1 5 -15 128 -40 72 -15 155 -35 185 -45 146 -51 194 -71 239 -100 52 -34 66 -38 76 -22 24 38 -144 132 -340 191 -124 37 -220 59 -234 54 -7 -3 -20 0 -27 6 -8 6 -21 8 -30 5 -9 -4 -23 -1 -30 5 -8 6 -25 8 -39 5 -14 -4 -33 -2 -43 2 -24 13 -226 21 -292 12z"/>
 <path d="M3630 961 c0 -6 8 -11 18 -11 25 0 72 -104 77 -170 3 -34 -41 -131 -65 -145 -36 -21 -113 -58 -125 -60 -5 -1 -12 -3 -15 -4 -3 -1 -27 -4 -55 -7 -27 -2 -57 -7 -65 -10 -8 -3 -66 -5 -127 -4 -77 1 -113 -2 -113 -10 0 -14 276 -6 310 9 3 1 21 4 40 6 54 6 123 39 168 82 70 67 79 161 24 272 -19 39 -34 57 -50 59 -12 2 -22 -1 -22 -7z"/>
 <path d="M2326 811 c-15 -16 -15 -19 1 -34 31 -27 225 -117 298 -138 39 -11 78 -25 88 -30 23 -12 159 -41 165 -34 3 3 11 0 17 -5 11 -9 69 -17 186 -25 26 -1 53 -6 60 -11 11 -6 10 -3 -1 10 -11 14 -24 17 -57 13 -24 -2 -46 0 -49 5 -3 5 -18 8 -32 7 -15 -2 -36 0 -47 4 -11 4 -38 9 -60 12 -22 4 -50 8 -62 11 -13 2 -33 6 -45 9 -100 18 -458 169 -458 192 0 19 6 17 68 -21 32 -19 86 -44 122 -56 35 -12 76 -28 92 -36 15 -8 40 -16 55 -18 15 -2 41 -9 58 -15 16 -7 45 -14 65 -16 19 -2 42 -6 50 -9 8 -3 33 -7 55 -10 22 -3 55 -8 73 -12 20 -4 32 -3 32 4 0 6 -21 14 -47 17 -27 4 -72 11 -100 16 -29 6 -63 11 -76 13 -12 1 -28 6 -35 10 -7 4 -16 5 -21 1 -5 -3 -12 -1 -16 5 -3 5 -13 10 -22 10 -8 0 -66 20 -127 45 -62 25 -117 45 -121 45 -4 0 -22 10 -39 23 -49 37 -52 38 -70 18z"/>
 <path d="M1706 764 c-24 -23 -20 -40 24 -121 22 -40 37 -73 32 -73 -5 0 -33 17 -63 38 -69 48 -127 82 -140 82 -6 0 -22 9 -36 20 -35 27 -67 26 -83 -5 -12 -22 -10 -31 15 -82 15 -32 41 -75 57 -96 25 -32 28 -40 17 -53 -15 -18 2 -35 80 -79 77 -44 75 -9 -5 92 -86 107 -104 184 -37 154 45 -20 151 -90 241 -158 45 -35 86 -63 91 -63 5 0 11 -7 15 -15 6 -18 32 -20 42 -3 4 6 -3 20 -17 32 -33 30 -119 159 -151 229 -16 35 -16 38 -1 44 9 4 29 -1 45 -10 38 -22 60 -22 56 1 -3 18 -119 82 -149 82 -10 0 -25 -7 -33 -16z"/>
 <path d="M958 653 c-27 -7 -22 -31 14 -66 29 -28 78 -92 78 -101 0 -5 -40 -18 -59 -20 -27 -2 -22 -25 9 -41 22 -11 44 -14 69 -10 35 6 39 3 96 -60 42 -47 65 -65 79 -63 34 5 30 40 -9 85 l-35 41 37 -10 c42 -11 121 -42 170 -65 18 -8 40 -13 48 -9 32 12 27 35 -15 76 -46 44 -76 53 -67 19 4 -13 1 -19 -6 -16 -7 2 -44 14 -83 27 l-70 22 25 27 c32 34 75 90 80 105 10 27 81 38 81 12 0 -8 9 -24 19 -37 18 -22 21 -23 35 -9 15 14 14 19 -9 50 -30 41 -50 50 -98 45 -29 -2 -47 -15 -98 -70 -34 -36 -75 -73 -91 -81 -25 -13 -31 -13 -52 1 -25 16 -47 45 -77 99 -19 35 -47 54 -71 49z"/>
 <path d="M683 605 c-9 -24 5 -74 33 -119 14 -22 41 -67 59 -98 32 -56 33 -58 12 -59 -128 -4 -161 -14 -172 -50 -5 -15 -1 -28 12 -41 19 -19 20 -19 79 4 41 16 81 23 132 23 51 0 72 4 72 13 0 8 16 12 44 12 25 0 48 5 51 11 12 19 -29 38 -80 39 -48 0 -51 2 -82 48 -29 45 -83 145 -83 157 0 12 32 3 85 -25 67 -35 65 -35 65 -14 0 22 -21 38 -105 80 -75 37 -112 43 -122 19z"/>
 </g>
<g id="layer106" fill="#ee9c37" stroke="none">
 <path d="M3298 1410 c-28 -17 -21 -56 17 -98 29 -33 33 -44 29 -73 -11 -69 81 -152 171 -153 33 -1 41 3 43 19 1 11 -7 31 -19 44 l-22 24 -18 -22 c-15 -18 -22 -20 -37 -12 -27 14 -72 69 -72 87 0 16 26 19 35 5 8 -15 66 -10 72 6 8 21 -15 41 -57 48 -37 6 -90 51 -90 76 0 19 55 8 108 -22 40 -23 57 -28 66 -19 8 8 5 16 -14 30 -68 53 -175 83 -212 60z"/>
 <path d="M2800 1326 c-19 -19 -10 -52 23 -92 28 -32 33 -45 29 -75 -3 -32 2 -43 34 -79 45 -49 78 -68 133 -75 50 -6 60 9 36 54 -18 35 -44 41 -52 11 -8 -29 -27 -25 -62 15 -35 40 -43 82 -13 70 39 -17 72 -17 78 -1 9 24 -14 45 -58 52 -36 6 -88 50 -88 75 0 16 40 9 105 -18 46 -20 67 -35 74 -53 21 -58 71 -110 135 -140 72 -34 94 -36 142 -14 48 23 45 51 -12 102 -50 44 -98 62 -117 43 -16 -16 2 -42 43 -63 40 -20 52 -38 39 -54 -7 -9 -19 -7 -49 7 -22 11 -51 24 -65 29 -26 10 -65 83 -65 122 0 28 54 58 73 39 6 -6 18 -11 28 -11 9 0 33 -11 53 -25 43 -29 59 -32 54 -8 -4 21 -71 68 -119 82 -73 22 -149 4 -149 -35 0 -18 4 -19 -65 17 -62 32 -145 45 -165 25z"/>
 <path d="M1706 764 c-24 -23 -20 -40 24 -121 22 -40 37 -73 32 -73 -5 0 -33 17 -63 38 -69 48 -127 82 -140 82 -6 0 -22 9 -36 20 -35 27 -67 26 -83 -5 -12 -22 -10 -31 15 -82 15 -32 41 -75 57 -96 25 -32 28 -40 17 -53 -15 -18 2 -35 80 -79 77 -44 75 -9 -5 92 -86 107 -104 184 -37 154 45 -20 151 -90 241 -158 45 -35 86 -63 91 -63 5 0 11 -7 15 -15 6 -18 32 -20 42 -3 4 6 -3 20 -17 32 -33 30 -119 159 -151 229 -16 35 -16 38 -1 44 9 4 29 -1 45 -10 38 -22 60 -22 56 1 -3 18 -119 82 -149 82 -10 0 -25 -7 -33 -16z"/>
 <path d="M958 653 c-27 -7 -22 -31 14 -66 29 -28 78 -92 78 -101 0 -5 -40 -18 -59 -20 -27 -2 -22 -25 9 -41 22 -11 44 -14 69 -10 35 6 39 3 96 -60 42 -47 65 -65 79 -63 34 5 30 40 -9 85 l-35 41 37 -10 c42 -11 121 -42 170 -65 18 -8 40 -13 48 -9 32 12 27 35 -15 76 -46 44 -76 53 -67 19 4 -13 1 -19 -6 -16 -7 2 -44 14 -83 27 l-70 22 25 27 c32 34 75 90 80 105 10 27 81 38 81 12 0 -8 9 -24 19 -37 18 -22 21 -23 35 -9 15 14 14 19 -9 50 -30 41 -50 50 -98 45 -29 -2 -47 -15 -98 -70 -34 -36 -75 -73 -91 -81 -25 -13 -31 -13 -52 1 -25 16 -47 45 -77 99 -19 35 -47 54 -71 49z"/>
 <path d="M683 605 c-9 -24 5 -74 33 -119 14 -22 41 -67 59 -98 32 -56 33 -58 12 -59 -128 -4 -161 -14 -172 -50 -5 -15 -1 -28 12 -41 19 -19 20 -19 79 4 41 16 81 23 132 23 51 0 72 4 72 13 0 8 16 12 44 12 25 0 48 5 51 11 12 19 -29 38 -80 39 -48 0 -51 2 -82 48 -29 45 -83 145 -83 157 0 12 32 3 85 -25 67 -35 65 -35 65 -14 0 22 -21 38 -105 80 -75 37 -112 43 -122 19z"/>
 </g>
<g id="layer107" fill="#eba551" stroke="none">
 <path d="M3298 1410 c-28 -17 -21 -56 17 -98 29 -33 33 -44 29 -73 -11 -69 81 -152 171 -153 33 -1 41 3 43 19 1 11 -7 31 -19 44 l-22 24 -18 -22 c-15 -18 -22 -20 -37 -12 -27 14 -72 69 -72 87 0 17 21 19 37 3 6 -6 17 -9 24 -7 8 3 -1 12 -20 21 -26 13 -37 14 -48 6 -19 -16 -7 -47 35 -91 42 -44 29 -52 -16 -10 -37 34 -50 77 -33 105 11 17 8 23 -24 50 -68 55 -64 98 9 96 37 -1 38 -2 11 -8 -42 -9 -42 -33 -1 -79 27 -29 47 -41 77 -46 35 -6 40 -10 36 -26 -6 -23 11 -27 19 -5 9 23 -13 43 -56 50 -37 6 -90 51 -90 76 0 19 55 8 108 -22 40 -23 57 -28 66 -19 8 8 5 16 -14 30 -68 53 -175 83 -212 60z"/>
 <path d="M2802 1328 c-21 -21 -13 -53 21 -94 28 -32 33 -45 29 -75 -3 -32 2 -43 34 -79 45 -49 78 -68 133 -75 50 -6 60 9 36 54 -18 35 -44 41 -52 11 -8 -29 -27 -25 -62 15 -35 40 -43 82 -13 70 39 -17 72 -17 78 -1 9 24 -14 45 -58 52 -36 6 -88 50 -88 75 0 16 40 9 105 -18 46 -20 67 -35 74 -53 21 -58 71 -110 135 -140 72 -34 94 -36 142 -14 48 23 45 51 -12 102 -50 44 -98 62 -117 43 -16 -16 2 -42 43 -63 40 -21 52 -38 38 -55 -8 -10 -6 -13 6 -13 22 0 21 43 -2 63 -10 10 -26 17 -35 17 -9 0 -21 9 -27 20 -17 32 15 25 71 -16 62 -46 68 -80 14 -90 -102 -19 -221 65 -245 172 -5 22 -5 45 1 55 13 26 68 34 110 16 l34 -15 -37 5 c-30 4 -41 1 -63 -21 -22 -22 -26 -33 -21 -59 12 -61 82 -126 151 -143 43 -10 23 6 -38 32 -42 18 -56 30 -74 65 -32 62 -30 91 8 108 23 10 34 10 42 2 6 -6 18 -11 28 -11 9 0 33 -11 53 -25 43 -29 59 -32 54 -8 -4 21 -71 68 -119 82 -74 22 -149 4 -149 -35 0 -9 -3 -14 -7 -12 -98 48 -146 69 -150 64 -3 -3 10 -11 28 -19 l34 -14 -45 1 c-58 1 -63 -20 -16 -72 27 -29 47 -41 76 -46 24 -4 40 -12 40 -20 0 -15 -46 -10 -56 5 -3 5 -14 9 -25 9 -15 0 -19 -7 -19 -35 0 -26 9 -42 38 -71 21 -21 28 -32 16 -26 -12 7 -34 26 -49 44 -23 27 -26 39 -22 72 5 33 2 42 -19 59 -13 10 -31 32 -39 47 -13 25 -13 30 0 44 8 8 15 17 15 20 0 10 -15 7 -28 -6z"/>
 <path d="M1706 764 c-24 -23 -20 -40 24 -121 22 -40 37 -73 32 -73 -5 0 -33 17 -63 38 -69 48 -127 82 -140 82 -6 0 -22 9 -36 20 -35 27 -67 26 -83 -5 -12 -22 -10 -31 15 -82 15 -32 41 -75 57 -96 25 -32 28 -40 17 -53 -15 -18 2 -35 80 -79 77 -44 75 -9 -5 92 -86 107 -104 184 -37 154 45 -20 151 -90 241 -158 45 -35 86 -63 91 -63 5 0 11 -7 15 -15 6 -18 32 -20 42 -3 4 6 -3 20 -17 32 -33 30 -119 159 -151 229 -16 35 -16 38 -1 44 9 4 29 -1 45 -10 38 -22 60 -22 56 1 -3 18 -119 82 -149 82 -10 0 -25 -7 -33 -16z"/>
 <path d="M958 653 c-27 -7 -22 -31 14 -66 31 -30 78 -92 78 -102 0 -3 -6 -5 -14 -5 -8 0 -18 -4 -21 -10 -4 -6 8 -10 29 -10 22 0 36 5 36 13 -1 6 -28 43 -60 81 -60 69 -69 86 -50 86 17 0 50 -39 50 -58 0 -10 22 -39 48 -65 44 -44 51 -47 76 -37 15 5 63 44 106 85 129 123 112 82 -24 -57 -37 -39 -45 -52 -35 -59 8 -5 21 -9 29 -9 8 0 52 -12 97 -27 87 -28 108 -26 78 7 -27 30 -10 24 30 -11 60 -53 40 -77 -33 -40 -46 23 -207 74 -221 70 -5 -2 12 -29 40 -59 52 -58 58 -70 33 -70 -16 0 -42 25 -101 93 -29 35 -35 37 -68 31 -49 -9 -86 2 -78 22 4 11 2 15 -7 12 -50 -16 19 -63 79 -53 35 6 39 3 96 -60 42 -47 65 -65 79 -63 34 5 30 40 -9 85 l-35 41 37 -10 c42 -11 121 -42 170 -65 18 -8 40 -13 48 -9 32 12 27 35 -15 76 -46 44 -76 53 -67 19 4 -13 1 -19 -6 -16 -7 2 -44 14 -83 27 l-70 22 25 28 c47 50 81 95 81 107 0 11 12 16 72 27 19 4 65 -40 53 -51 -4 -5 -10 -3 -12 3 -2 6 -10 20 -18 30 -12 16 -14 17 -15 3 0 -9 9 -27 19 -40 18 -22 21 -23 35 -9 15 14 14 19 -9 50 -30 41 -50 50 -98 45 -29 -2 -47 -15 -98 -70 -34 -36 -75 -73 -91 -81 -25 -13 -31 -13 -52 1 -25 16 -47 45 -77 99 -19 35 -47 54 -71 49z"/>
 <path d="M683 605 c-9 -24 5 -74 33 -119 14 -22 41 -67 59 -98 32 -56 33 -58 12 -59 -128 -4 -161 -14 -172 -50 -5 -15 -1 -28 12 -41 19 -19 20 -19 79 4 41 16 81 23 132 23 51 0 72 4 72 13 0 8 16 12 44 12 25 0 48 5 51 11 12 19 -29 38 -80 39 -48 0 -51 2 -82 48 -29 45 -83 145 -83 157 0 12 32 3 85 -25 67 -35 65 -35 65 -14 0 22 -21 38 -105 80 -75 37 -112 43 -122 19z m111 -31 c39 -20 78 -42 86 -50 8 -8 -10 -1 -40 15 -95 53 -118 36 -74 -50 15 -30 44 -80 66 -111 l39 -58 57 -2 c41 -1 47 -2 20 -5 -20 -2 -42 -10 -48 -18 -7 -9 -23 -12 -45 -8 -21 3 -64 -4 -120 -22 -64 -20 -90 -24 -98 -16 -17 17 3 43 39 53 16 4 55 8 87 9 72 2 73 8 6 119 -71 117 -91 180 -57 180 6 0 43 -16 82 -36z"/>
 </g>
<g id="layer108" fill="#e8b170" stroke="none">
 <path d="M3052 1314 c-12 -8 -22 -22 -22 -30 0 -18 -3 -18 -42 6 -52 31 -58 23 -8 -10 57 -38 51 -38 -24 0 -99 50 -137 37 -90 -31 30 -43 52 -59 81 -59 11 0 28 -6 39 -14 17 -13 18 -15 2 -21 -10 -4 -31 0 -49 9 -37 18 -49 14 -49 -18 0 -30 31 -69 75 -96 35 -22 55 -20 55 6 0 22 20 17 29 -8 5 -14 5 -28 -1 -35 -7 -9 -7 -13 1 -13 20 0 23 27 6 59 -18 35 -44 41 -52 11 -8 -29 -27 -25 -62 15 -35 40 -43 82 -13 70 39 -17 72 -17 78 -1 9 24 -14 45 -58 52 -36 6 -88 50 -88 75 0 16 40 9 105 -18 53 -24 66 -34 80 -66 19 -42 85 -117 104 -117 6 0 -4 14 -23 31 -45 39 -72 84 -81 132 -13 71 40 95 134 62 46 -16 105 -54 97 -62 -3 -3 -17 4 -33 15 -51 35 -98 45 -132 28 -16 -9 -32 -24 -36 -35 -6 -21 16 -84 34 -95 15 -9 14 -4 -4 30 -24 47 -19 77 16 93 23 10 34 10 42 2 6 -6 18 -11 28 -11 9 0 33 -11 53 -25 20 -14 42 -25 47 -25 23 0 2 36 -36 61 -71 49 -160 63 -203 33z"/>
 <path d="M1706 764 c-24 -23 -20 -40 24 -121 22 -40 37 -73 32 -73 -5 0 -33 17 -63 38 -72 50 -127 82 -142 82 -7 0 4 -10 23 -22 118 -73 142 -90 137 -94 -2 -2 -37 16 -78 41 -116 71 -154 54 -103 -47 27 -54 103 -152 111 -144 3 2 -15 29 -39 58 -89 109 -109 190 -41 159 45 -20 151 -90 242 -159 45 -35 85 -61 88 -58 3 3 -36 35 -86 72 -92 68 -121 102 -37 45 24 -17 47 -31 51 -31 3 0 -12 26 -33 58 -78 115 -101 183 -66 196 17 7 105 -30 139 -58 19 -15 17 -15 -22 0 -23 9 -48 14 -55 11 -7 -3 -4 -6 8 -6 11 -1 29 -8 40 -16 27 -20 56 -19 52 3 -3 18 -119 82 -149 82 -10 0 -25 -7 -33 -16z"/>
 <path d="M958 653 c-10 -3 -18 -10 -18 -17 0 -18 29 -55 53 -67 16 -8 13 -2 -12 24 -31 33 -32 37 -16 43 19 8 55 -26 55 -50 0 -6 22 -34 49 -60 63 -62 78 -59 176 39 68 69 78 75 115 75 30 0 47 -6 65 -25 25 -24 32 -45 16 -45 -5 0 -16 10 -24 23 -9 12 -16 17 -16 11 -1 -7 7 -22 18 -35 16 -20 21 -21 34 -10 9 7 13 20 11 29 -4 11 -1 10 7 -3 7 -11 25 -37 42 -58 24 -32 27 -40 16 -53 -11 -13 -9 -19 11 -35 42 -33 112 -69 121 -63 14 8 11 24 -3 19 -7 -3 -37 9 -66 26 -45 25 -53 34 -48 52 4 16 -8 41 -39 86 -25 36 -45 58 -45 50 -1 -8 -11 -2 -25 16 -21 25 -31 30 -73 30 -47 0 -50 -2 -112 -68 -35 -38 -76 -75 -92 -83 -25 -13 -31 -13 -52 1 -25 16 -47 45 -77 99 -19 35 -47 54 -71 49z"/>
 </g>
<g id="layer109" fill="#e5bc8c" stroke="none">
 </g>
<g id="layer110" fill="#dbc9bc" stroke="none">
 </g>
<g id="layer111" fill="#e2d5c8" stroke="none">
 </g>

</svg>